<mxfile host="" modified="2020-05-29T10:54:57.462Z" agent="5.0 (Macintosh; Intel Mac OS X 10_15_4) AppleWebKit/537.36 (KHTML, like Gecko) Code/1.45.1 Chrome/78.0.3904.130 Electron/7.2.4 Safari/537.36" etag="PuUTV05GE4UZBRVAfCAc" version="13.1.3">
    <diagram id="6hGFLwfOUW9BJ-s0fimq" name="Page-1">
        <mxGraphModel dx="2303" dy="713" grid="0" gridSize="10" guides="1" tooltips="1" connect="1" arrows="1" fold="1" page="1" pageScale="1" pageWidth="1654" pageHeight="2336" background="none" math="0" shadow="0">
            <root>
                <mxCell id="0"/>
                <mxCell id="1" parent="0"/>
                <mxCell id="48" value="" style="shape=folder;fontStyle=1;spacingTop=10;tabWidth=40;tabHeight=14;tabPosition=left;html=1;" parent="1" vertex="1">
                    <mxGeometry x="-1277" y="574" width="320" height="220" as="geometry"/>
                </mxCell>
                <mxCell id="2" value="餐桌編輯" style="ellipse;whiteSpace=wrap;html=1;" parent="1" vertex="1">
                    <mxGeometry x="-840" y="928" width="75" height="50" as="geometry"/>
                </mxCell>
                <mxCell id="3" value="" style="endArrow=none;dashed=1;html=1;exitX=0.5;exitY=1;exitDx=0;exitDy=0;entryX=0;entryY=0;entryDx=61;entryDy=0;entryPerimeter=0;" parent="1" source="2" target="4" edge="1">
                    <mxGeometry width="50" height="50" relative="1" as="geometry">
                        <mxPoint x="-973" y="1143" as="sourcePoint"/>
                        <mxPoint x="-938" y="1102.5" as="targetPoint"/>
                        <Array as="points"/>
                    </mxGeometry>
                </mxCell>
                <mxCell id="4" value="&lt;p style=&quot;line-height: 150%&quot;&gt;&lt;ul&gt;&lt;li&gt;編輯餐桌數量&lt;/li&gt;&lt;li&gt;編輯餐桌排列&lt;/li&gt;&lt;li&gt;編輯餐桌狀態顏色顯示&lt;/li&gt;&lt;/ul&gt;&lt;/p&gt;" style="shape=note;whiteSpace=wrap;html=1;size=14;verticalAlign=top;align=left;spacingTop=-6;" parent="1" vertex="1">
                    <mxGeometry x="-864" y="1004" width="178" height="80" as="geometry"/>
                </mxCell>
                <mxCell id="11" value="帳密管理" style="ellipse;whiteSpace=wrap;html=1;" parent="1" vertex="1">
                    <mxGeometry x="-557" y="694" width="75" height="50" as="geometry"/>
                </mxCell>
                <mxCell id="12" value="" style="endArrow=none;dashed=1;html=1;exitX=1;exitY=0.5;exitDx=0;exitDy=0;entryX=0;entryY=0;entryDx=144;entryDy=54.5;entryPerimeter=0;" parent="1" source="11" target="13" edge="1">
                    <mxGeometry width="50" height="50" relative="1" as="geometry">
                        <mxPoint x="-913.75" y="522.6600000000001" as="sourcePoint"/>
                        <mxPoint x="-963.75" y="523" as="targetPoint"/>
                        <Array as="points"/>
                    </mxGeometry>
                </mxCell>
                <mxCell id="13" value="&lt;p style=&quot;line-height: 150%&quot;&gt;&lt;ul&gt;&lt;li&gt;Pos機帳密管理&lt;/li&gt;&lt;li&gt;日結密碼管理（要做修改必須要用老闆帳密）&lt;/li&gt;&lt;/ul&gt;&lt;/p&gt;" style="shape=note;whiteSpace=wrap;html=1;size=14;verticalAlign=top;align=left;spacingTop=-6;" parent="1" vertex="1">
                    <mxGeometry x="-365.5" y="665" width="144" height="95" as="geometry"/>
                </mxCell>
                <mxCell id="16" value="&lt;p style=&quot;line-height: 150%&quot;&gt;&lt;ul&gt;&lt;li&gt;產出日結報表&lt;/li&gt;&lt;li&gt;產出月結報表&lt;/li&gt;&lt;li&gt;瀏覽、查詢日結、月結報表（從開店至今，有資料才給查）&lt;/li&gt;&lt;/ul&gt;&lt;/p&gt;" style="shape=note;whiteSpace=wrap;html=1;size=14;verticalAlign=top;align=left;spacingTop=-6;" parent="1" vertex="1">
                    <mxGeometry x="-1455" y="680" width="158" height="110" as="geometry"/>
                </mxCell>
                <mxCell id="17" value="折讓管理" style="ellipse;whiteSpace=wrap;html=1;" parent="1" vertex="1">
                    <mxGeometry x="-606" y="881" width="75" height="50" as="geometry"/>
                </mxCell>
                <mxCell id="18" value="" style="endArrow=none;dashed=1;html=1;entryX=0.5;entryY=1;entryDx=0;entryDy=0;exitX=0.5;exitY=0;exitDx=0;exitDy=0;exitPerimeter=0;" parent="1" source="19" target="17" edge="1">
                    <mxGeometry width="50" height="50" relative="1" as="geometry">
                        <mxPoint x="-903.5" y="831" as="sourcePoint"/>
                        <mxPoint x="-899.5" y="780.6599999999999" as="targetPoint"/>
                        <Array as="points"/>
                    </mxGeometry>
                </mxCell>
                <mxCell id="19" value="&lt;p style=&quot;line-height: 150%&quot;&gt;&lt;ul&gt;&lt;li&gt;折扣管理（有分全館與季節性）&lt;/li&gt;&lt;li&gt;折讓管理&lt;/li&gt;&lt;li&gt;紅利點數折扣管理&lt;/li&gt;&lt;/ul&gt;&lt;/p&gt;" style="shape=note;whiteSpace=wrap;html=1;size=14;verticalAlign=top;align=left;spacingTop=-6;" parent="1" vertex="1">
                    <mxGeometry x="-658.5" y="957" width="180" height="79" as="geometry"/>
                </mxCell>
                <mxCell id="41" value="預約規則管理" style="ellipse;whiteSpace=wrap;html=1;" parent="1" vertex="1">
                    <mxGeometry x="-1000" y="926" width="75" height="50" as="geometry"/>
                </mxCell>
                <mxCell id="44" value="&lt;p style=&quot;line-height: 150%&quot;&gt;&lt;/p&gt;&lt;ul&gt;&lt;li&gt;編輯可開放的預約天數與區間（區間老師建議寫死，天數可以讓他彈性）&lt;/li&gt;&lt;/ul&gt;&lt;br&gt;&lt;p&gt;&lt;/p&gt;" style="shape=note;whiteSpace=wrap;html=1;size=14;verticalAlign=top;align=left;spacingTop=-6;" parent="1" vertex="1">
                    <mxGeometry x="-1223" y="905" width="173" height="80" as="geometry"/>
                </mxCell>
                <mxCell id="49" value="數據管理（有空再做）" style="text;align=center;fontStyle=1;verticalAlign=middle;spacingLeft=3;spacingRight=3;strokeColor=none;rotatable=0;points=[[0,0.5],[1,0.5]];portConstraint=eastwest;" parent="1" vertex="1">
                    <mxGeometry x="-1184.5" y="600" width="135" height="26" as="geometry"/>
                </mxCell>
                <mxCell id="51" value="資料分析" style="ellipse;whiteSpace=wrap;html=1;" parent="1" vertex="1">
                    <mxGeometry x="-1087" y="640" width="75" height="50" as="geometry"/>
                </mxCell>
                <mxCell id="52" value="" style="endArrow=none;dashed=1;html=1;exitX=0.5;exitY=1;exitDx=0;exitDy=0;entryX=0;entryY=0;entryDx=157.99999999999997;entryDy=62;entryPerimeter=0;" parent="1" source="57" target="16" edge="1">
                    <mxGeometry width="50" height="50" relative="1" as="geometry">
                        <mxPoint x="-1179.5" y="690" as="sourcePoint"/>
                        <mxPoint x="-1256" y="747" as="targetPoint"/>
                        <Array as="points">
                            <mxPoint x="-1179" y="742"/>
                        </Array>
                    </mxGeometry>
                </mxCell>
                <mxCell id="54" value="&lt;p style=&quot;line-height: 150%&quot;&gt;&lt;ul&gt;&lt;li&gt;產出自定義分析報告&lt;/li&gt;&lt;/ul&gt;&lt;/p&gt;" style="shape=note;whiteSpace=wrap;html=1;size=14;verticalAlign=top;align=left;spacingTop=-6;" parent="1" vertex="1">
                    <mxGeometry x="-937" y="734" width="173" height="40" as="geometry"/>
                </mxCell>
                <mxCell id="55" value="" style="endArrow=none;dashed=1;html=1;exitX=0.5;exitY=1;exitDx=0;exitDy=0;entryX=0;entryY=0.5;entryDx=0;entryDy=0;entryPerimeter=0;" parent="1" source="51" target="54" edge="1">
                    <mxGeometry width="50" height="50" relative="1" as="geometry">
                        <mxPoint x="-1169.5" y="700" as="sourcePoint"/>
                        <mxPoint x="-1287" y="752" as="targetPoint"/>
                        <Array as="points">
                            <mxPoint x="-1049" y="755"/>
                        </Array>
                    </mxGeometry>
                </mxCell>
                <mxCell id="57" value="交易明細查詢" style="ellipse;whiteSpace=wrap;html=1;" parent="1" vertex="1">
                    <mxGeometry x="-1217.5" y="640" width="75" height="50" as="geometry"/>
                </mxCell>
                <mxCell id="60" value="瀏覽顧客意見" style="ellipse;whiteSpace=wrap;html=1;" parent="1" vertex="1">
                    <mxGeometry x="-1154.5" y="714" width="75" height="50" as="geometry"/>
                </mxCell>
                <mxCell id="67" value="&lt;font color=&quot;#000000&quot;&gt;店長&lt;/font&gt;" style="shape=umlActor;verticalLabelPosition=bottom;labelBackgroundColor=#ffffff;verticalAlign=top;html=1;" parent="1" vertex="1">
                    <mxGeometry x="-701" y="444" width="30" height="60" as="geometry"/>
                </mxCell>
                <mxCell id="75" value="" style="endArrow=none;html=1;entryX=0.5;entryY=1;entryDx=0;entryDy=0;exitX=0.25;exitY=0.1;exitDx=0;exitDy=0;exitPerimeter=0;" parent="1" source="67" target="76" edge="1">
                    <mxGeometry width="50" height="50" relative="1" as="geometry">
                        <mxPoint x="-750" y="430" as="sourcePoint"/>
                        <mxPoint x="-590" y="464" as="targetPoint"/>
                        <Array as="points">
                            <mxPoint x="-842" y="450"/>
                        </Array>
                    </mxGeometry>
                </mxCell>
                <mxCell id="76" value="帳密管理" style="ellipse;whiteSpace=wrap;html=1;" parent="1" vertex="1">
                    <mxGeometry x="-880" y="310" width="75" height="50" as="geometry"/>
                </mxCell>
                <mxCell id="77" value="" style="endArrow=none;dashed=1;html=1;exitX=0.5;exitY=0;exitDx=0;exitDy=0;entryX=0.5;entryY=1;entryDx=0;entryDy=0;entryPerimeter=0;" parent="1" source="76" target="78" edge="1">
                    <mxGeometry width="50" height="50" relative="1" as="geometry">
                        <mxPoint x="-992.5" y="379.6600000000001" as="sourcePoint"/>
                        <mxPoint x="-1042.5" y="380" as="targetPoint"/>
                        <Array as="points"/>
                    </mxGeometry>
                </mxCell>
                <mxCell id="78" value="&lt;p style=&quot;line-height: 150%&quot;&gt;&lt;ul&gt;&lt;li&gt;Pos機店長個人帳密修改&lt;/li&gt;&lt;/ul&gt;&lt;/p&gt;" style="shape=note;whiteSpace=wrap;html=1;size=14;verticalAlign=top;align=left;spacingTop=-6;" parent="1" vertex="1">
                    <mxGeometry x="-944" y="258" width="203.5" height="37" as="geometry"/>
                </mxCell>
                <mxCell id="82" value="" style="endArrow=none;html=1;entryX=0.5;entryY=1;entryDx=0;entryDy=0;exitX=0.5;exitY=0;exitDx=0;exitDy=0;exitPerimeter=0;" parent="1" source="67" target="86" edge="1">
                    <mxGeometry width="50" height="50" relative="1" as="geometry">
                        <mxPoint x="-670" y="465" as="sourcePoint"/>
                        <mxPoint x="-599.0000000000059" y="474" as="targetPoint"/>
                        <Array as="points"/>
                    </mxGeometry>
                </mxCell>
                <mxCell id="86" value="會員管理" style="ellipse;whiteSpace=wrap;html=1;" parent="1" vertex="1">
                    <mxGeometry x="-724" y="225" width="75" height="50" as="geometry"/>
                </mxCell>
                <mxCell id="88" value="&lt;p style=&quot;line-height: 150%&quot;&gt;&lt;/p&gt;&lt;ul&gt;&lt;li&gt;瀏覽會員相關資料（基本資料、紅利、預約記錄）&lt;/li&gt;&lt;li&gt;&lt;span style=&quot;color: rgba(0 , 0 , 0 , 0) ; font-family: monospace ; font-size: 0px&quot;&gt;%3CmxGraphModel%3E%3Croot%3E%3CmxCell%20id%3D%220%22%2F%3E%3CmxCell%20id%3D%221%22%20parent%3D%220%22%2F%3E%3CmxCell%20id%3D%222%22%20value%3D%22%22%20style%3D%22endArrow%3Dnone%3Bhtml%3D1%3BexitX%3D1%3BexitY%3D1%3BexitDx%3D0%3BexitDy%3D0%3BexitPerimeter%3D0%3BentryX%3D0%3BentryY%3D0.5%3BentryDx%3D0%3BentryDy%3D0%3B%22%20edge%3D%221%22%20parent%3D%221%22%3E%3CmxGeometry%20width%3D%2250%22%20height%3D%2250%22%20relative%3D%221%22%20as%3D%22geometry%22%3E%3CmxPoint%20x%3D%22-561%22%20y%3D%221810%22%20as%3D%22sourcePoint%22%2F%3E%3CmxPoint%20x%3D%22-496.99999999999454%22%20y%3D%221811%22%20as%3D%22targetPoint%22%2F%3E%3CArray%20as%3D%22points%22%2F%3E%3C%2FmxGeometry%3E%3C%2FmxCell%3E%3C%2Froot%3E%3C%2FmxGraphModel%3E&lt;/span&gt;編輯會員狀態（例如黑名單）&lt;/li&gt;&lt;/ul&gt;&lt;br&gt;&lt;p&gt;&lt;/p&gt;" style="shape=note;whiteSpace=wrap;html=1;size=14;verticalAlign=top;align=left;spacingTop=-6;" parent="1" vertex="1">
                    <mxGeometry x="-637" y="158" width="198" height="65" as="geometry"/>
                </mxCell>
                <mxCell id="90" value="商品管理" style="ellipse;whiteSpace=wrap;html=1;" parent="1" vertex="1">
                    <mxGeometry x="-620" y="351" width="75" height="50" as="geometry"/>
                </mxCell>
                <mxCell id="91" value="" style="endArrow=none;dashed=1;html=1;entryX=0;entryY=0.5;entryDx=0;entryDy=0;entryPerimeter=0;exitX=1;exitY=0.5;exitDx=0;exitDy=0;" parent="1" source="90" target="92" edge="1">
                    <mxGeometry width="50" height="50" relative="1" as="geometry">
                        <mxPoint x="-405" y="322" as="sourcePoint"/>
                        <mxPoint x="-470" y="372" as="targetPoint"/>
                        <Array as="points"/>
                    </mxGeometry>
                </mxCell>
                <mxCell id="92" value="&lt;p style=&quot;line-height: 150%&quot;&gt;&lt;ul&gt;&lt;li&gt;編輯商品類別（包含新增、下架、修改）&lt;/li&gt;&lt;li&gt;編輯商品品項（可選文字、圖片或文字＋圖片來顯示）&lt;/li&gt;&lt;li&gt;編輯配料類別&lt;/li&gt;&lt;li&gt;編輯配料品項&lt;/li&gt;&lt;/ul&gt;&lt;/p&gt;" style="shape=note;whiteSpace=wrap;html=1;size=14;verticalAlign=top;align=left;spacingTop=-6;" parent="1" vertex="1">
                    <mxGeometry x="-512" y="321" width="230" height="110" as="geometry"/>
                </mxCell>
                <mxCell id="96" value="&lt;font color=&quot;#000000&quot;&gt;老闆&lt;/font&gt;" style="shape=umlActor;verticalLabelPosition=bottom;labelBackgroundColor=#ffffff;verticalAlign=top;html=1;" parent="1" vertex="1">
                    <mxGeometry x="-700" y="845" width="30" height="60" as="geometry"/>
                </mxCell>
                <mxCell id="99" value="" style="endArrow=block;endSize=16;endFill=0;html=1;exitX=0.5;exitY=0;exitDx=0;exitDy=0;exitPerimeter=0;" parent="1" source="96" edge="1">
                    <mxGeometry width="160" relative="1" as="geometry">
                        <mxPoint x="-819" y="550" as="sourcePoint"/>
                        <mxPoint x="-685" y="538" as="targetPoint"/>
                        <Array as="points"/>
                    </mxGeometry>
                </mxCell>
                <mxCell id="102" value="" style="endArrow=none;html=1;exitX=1;exitY=1;exitDx=0;exitDy=0;exitPerimeter=0;entryX=0;entryY=0.5;entryDx=0;entryDy=0;" parent="1" source="96" target="17" edge="1">
                    <mxGeometry width="50" height="50" relative="1" as="geometry">
                        <mxPoint x="-547" y="714.9999999999995" as="sourcePoint"/>
                        <mxPoint x="-614" y="905" as="targetPoint"/>
                        <Array as="points"/>
                    </mxGeometry>
                </mxCell>
                <mxCell id="104" value="" style="endArrow=none;html=1;exitX=0;exitY=1;exitDx=0;exitDy=0;exitPerimeter=0;entryX=0.5;entryY=0;entryDx=0;entryDy=0;" parent="1" source="96" target="2" edge="1">
                    <mxGeometry width="50" height="50" relative="1" as="geometry">
                        <mxPoint x="-650" y="925" as="sourcePoint"/>
                        <mxPoint x="-793" y="936" as="targetPoint"/>
                        <Array as="points">
                            <mxPoint x="-802" y="905"/>
                        </Array>
                    </mxGeometry>
                </mxCell>
                <mxCell id="107" value="" style="endArrow=none;dashed=1;html=1;entryX=0;entryY=0.5;entryDx=0;entryDy=0;entryPerimeter=0;exitX=0.5;exitY=0;exitDx=0;exitDy=0;" parent="1" source="86" target="88" edge="1">
                    <mxGeometry width="50" height="50" relative="1" as="geometry">
                        <mxPoint x="-680.0000000000055" y="348" as="sourcePoint"/>
                        <mxPoint x="-617" y="348" as="targetPoint"/>
                        <Array as="points">
                            <mxPoint x="-686" y="191"/>
                        </Array>
                    </mxGeometry>
                </mxCell>
                <mxCell id="115" value="" style="endArrow=none;html=1;exitX=0.5;exitY=0.5;exitDx=0;exitDy=0;exitPerimeter=0;entryX=0.5;entryY=0;entryDx=0;entryDy=0;" parent="1" source="96" target="41" edge="1">
                    <mxGeometry width="50" height="50" relative="1" as="geometry">
                        <mxPoint x="-680" y="925" as="sourcePoint"/>
                        <mxPoint x="-759.0000000000055" y="926" as="targetPoint"/>
                        <Array as="points">
                            <mxPoint x="-962" y="875"/>
                        </Array>
                    </mxGeometry>
                </mxCell>
                <mxCell id="116" value="" style="endArrow=none;dashed=1;html=1;exitX=0;exitY=0.5;exitDx=0;exitDy=0;entryX=0;entryY=0;entryDx=172.99999999999997;entryDy=47;entryPerimeter=0;" parent="1" source="41" target="44" edge="1">
                    <mxGeometry width="50" height="50" relative="1" as="geometry">
                        <mxPoint x="-829.5" y="1089" as="sourcePoint"/>
                        <mxPoint x="-830" y="1114.9999999999995" as="targetPoint"/>
                        <Array as="points"/>
                    </mxGeometry>
                </mxCell>
                <mxCell id="118" value="" style="endArrow=none;html=1;exitX=0;exitY=0.3333333333333333;exitDx=0;exitDy=0;exitPerimeter=0;entryX=0.5;entryY=1;entryDx=0;entryDy=0;entryPerimeter=0;" parent="1" source="96" target="48" edge="1">
                    <mxGeometry width="50" height="50" relative="1" as="geometry">
                        <mxPoint x="-675" y="885" as="sourcePoint"/>
                        <mxPoint x="-878.0000000000057" y="860" as="targetPoint"/>
                        <Array as="points">
                            <mxPoint x="-741" y="865"/>
                            <mxPoint x="-1117" y="865"/>
                        </Array>
                    </mxGeometry>
                </mxCell>
                <mxCell id="120" value="" style="endArrow=none;html=1;exitX=0.75;exitY=0.1;exitDx=0;exitDy=0;exitPerimeter=0;entryX=0.5;entryY=1;entryDx=0;entryDy=0;" parent="1" source="96" target="11" edge="1">
                    <mxGeometry width="50" height="50" relative="1" as="geometry">
                        <mxPoint x="-510" y="560" as="sourcePoint"/>
                        <mxPoint x="-692" y="621" as="targetPoint"/>
                        <Array as="points">
                            <mxPoint x="-519" y="851"/>
                        </Array>
                    </mxGeometry>
                </mxCell>
                <mxCell id="121" value="&lt;font style=&quot;font-size: 23px&quot;&gt;&lt;b&gt;NEXPOS_後台_Use case diagram&lt;/b&gt;&lt;/font&gt;" style="text;html=1;strokeColor=none;fillColor=none;align=center;verticalAlign=middle;whiteSpace=wrap;rounded=0;" parent="1" vertex="1">
                    <mxGeometry x="-1028" y="25" width="403" height="34" as="geometry"/>
                </mxCell>
                <mxCell id="124" value="" style="endArrow=none;html=1;exitX=0.75;exitY=0.1;exitDx=0;exitDy=0;exitPerimeter=0;entryX=0.5;entryY=1;entryDx=0;entryDy=0;" parent="1" source="67" target="90" edge="1">
                    <mxGeometry width="50" height="50" relative="1" as="geometry">
                        <mxPoint x="-818.5" y="775" as="sourcePoint"/>
                        <mxPoint x="-676" y="775" as="targetPoint"/>
                        <Array as="points">
                            <mxPoint x="-582" y="450"/>
                        </Array>
                    </mxGeometry>
                </mxCell>
            </root>
        </mxGraphModel>
    </diagram>
</mxfile>